<mxfile host="Electron" modified="2024-04-24T07:42:02.563Z" agent="Mozilla/5.0 (X11; Linux x86_64) AppleWebKit/537.36 (KHTML, like Gecko) draw.io/24.2.5 Chrome/120.0.6099.109 Electron/28.1.0 Safari/537.36" etag="-pXSsHHfl9hnqEMyhKnr" scale="2" border="20" version="24.2.5" type="device">
  <diagram name="Pagina-1" id="3jksIpinWa5mBvmYFMyw">
    <mxGraphModel dx="292" dy="172" grid="1" gridSize="5" guides="1" tooltips="1" connect="1" arrows="1" fold="1" page="1" pageScale="1" pageWidth="827" pageHeight="1169" math="0" shadow="0">
      <root>
        <mxCell id="0" />
        <mxCell id="1" parent="0" />
        <mxCell id="YgRYtaa7pJsk0RgAJNCK-1" value="" style="endArrow=none;html=1;rounded=0;" parent="1" edge="1">
          <mxGeometry width="50" height="50" relative="1" as="geometry">
            <mxPoint x="40" y="600" as="sourcePoint" />
            <mxPoint x="40" y="40" as="targetPoint" />
          </mxGeometry>
        </mxCell>
        <mxCell id="YgRYtaa7pJsk0RgAJNCK-9" value="" style="endArrow=none;html=1;rounded=0;" parent="1" edge="1">
          <mxGeometry width="50" height="50" relative="1" as="geometry">
            <mxPoint x="40" y="120" as="sourcePoint" />
            <mxPoint x="80" y="120" as="targetPoint" />
          </mxGeometry>
        </mxCell>
        <mxCell id="YgRYtaa7pJsk0RgAJNCK-36" style="edgeStyle=orthogonalEdgeStyle;rounded=0;orthogonalLoop=1;jettySize=auto;html=1;endArrow=none;endFill=0;" parent="1" edge="1">
          <mxGeometry relative="1" as="geometry">
            <mxPoint x="420" y="119.95348837209303" as="targetPoint" />
            <mxPoint x="375" y="120" as="sourcePoint" />
          </mxGeometry>
        </mxCell>
        <mxCell id="YgRYtaa7pJsk0RgAJNCK-37" style="edgeStyle=orthogonalEdgeStyle;rounded=0;orthogonalLoop=1;jettySize=auto;html=1;exitX=0;exitY=0.5;exitDx=0;exitDy=0;exitPerimeter=0;endArrow=none;endFill=0;" parent="1" edge="1">
          <mxGeometry relative="1" as="geometry">
            <mxPoint x="40" y="160.03846153846155" as="targetPoint" />
            <mxPoint x="80" y="159.99999999999994" as="sourcePoint" />
          </mxGeometry>
        </mxCell>
        <mxCell id="YgRYtaa7pJsk0RgAJNCK-39" style="edgeStyle=orthogonalEdgeStyle;rounded=0;orthogonalLoop=1;jettySize=auto;html=1;endArrow=none;endFill=0;fontSize=10;" parent="1" edge="1">
          <mxGeometry relative="1" as="geometry">
            <mxPoint x="140" y="160.03846153846155" as="targetPoint" />
            <mxPoint x="120" y="160" as="sourcePoint" />
          </mxGeometry>
        </mxCell>
        <mxCell id="YgRYtaa7pJsk0RgAJNCK-24" value="" style="endArrow=none;html=1;rounded=0;" parent="1" edge="1">
          <mxGeometry width="50" height="50" relative="1" as="geometry">
            <mxPoint x="420" y="600" as="sourcePoint" />
            <mxPoint x="420" y="40" as="targetPoint" />
          </mxGeometry>
        </mxCell>
        <mxCell id="YgRYtaa7pJsk0RgAJNCK-25" value="" style="endArrow=none;html=1;rounded=0;" parent="1" edge="1">
          <mxGeometry width="50" height="50" relative="1" as="geometry">
            <mxPoint x="375" y="80" as="sourcePoint" />
            <mxPoint x="420" y="80" as="targetPoint" />
          </mxGeometry>
        </mxCell>
        <mxCell id="YgRYtaa7pJsk0RgAJNCK-26" value="" style="endArrow=none;html=1;rounded=0;" parent="1" edge="1">
          <mxGeometry width="50" height="50" relative="1" as="geometry">
            <mxPoint x="40" y="80" as="sourcePoint" />
            <mxPoint x="80" y="80" as="targetPoint" />
          </mxGeometry>
        </mxCell>
        <mxCell id="YgRYtaa7pJsk0RgAJNCK-33" style="edgeStyle=orthogonalEdgeStyle;rounded=0;orthogonalLoop=1;jettySize=auto;html=1;entryX=0;entryY=0.5;entryDx=0;entryDy=0;entryPerimeter=0;strokeColor=default;endArrow=none;endFill=0;fontSize=10;" parent="1" edge="1">
          <mxGeometry relative="1" as="geometry">
            <mxPoint x="140" y="120" as="targetPoint" />
            <mxPoint x="120" y="120" as="sourcePoint" />
          </mxGeometry>
        </mxCell>
        <mxCell id="YgRYtaa7pJsk0RgAJNCK-34" style="edgeStyle=orthogonalEdgeStyle;rounded=0;orthogonalLoop=1;jettySize=auto;html=1;endArrow=none;endFill=0;fontSize=10;" parent="1" edge="1">
          <mxGeometry relative="1" as="geometry">
            <mxPoint x="180" y="120" as="sourcePoint" />
            <mxPoint x="220" y="120" as="targetPoint" />
          </mxGeometry>
        </mxCell>
        <mxCell id="YgRYtaa7pJsk0RgAJNCK-35" style="edgeStyle=orthogonalEdgeStyle;rounded=0;orthogonalLoop=1;jettySize=auto;html=1;entryX=0;entryY=0.5;entryDx=0;entryDy=0;entryPerimeter=0;endArrow=none;endFill=0;fontSize=10;" parent="1" edge="1">
          <mxGeometry relative="1" as="geometry">
            <mxPoint x="260" y="120" as="sourcePoint" />
            <mxPoint x="339.9999999999999" y="120" as="targetPoint" />
          </mxGeometry>
        </mxCell>
        <mxCell id="YgRYtaa7pJsk0RgAJNCK-40" style="edgeStyle=orthogonalEdgeStyle;rounded=0;orthogonalLoop=1;jettySize=auto;html=1;endArrow=none;endFill=0;entryX=-0.001;entryY=0.526;entryDx=0;entryDy=0;entryPerimeter=0;fontSize=10;" parent="1" edge="1">
          <mxGeometry relative="1" as="geometry">
            <mxPoint x="139.94999999999993" y="120.416" as="targetPoint" />
            <mxPoint x="140" y="160" as="sourcePoint" />
          </mxGeometry>
        </mxCell>
        <mxCell id="YgRYtaa7pJsk0RgAJNCK-61" style="edgeStyle=orthogonalEdgeStyle;rounded=0;orthogonalLoop=1;jettySize=auto;html=1;exitX=0;exitY=0.5;exitDx=0;exitDy=0;exitPerimeter=0;endArrow=none;endFill=0;" parent="1" edge="1">
          <mxGeometry relative="1" as="geometry">
            <mxPoint x="40" y="200.23809523809524" as="targetPoint" />
            <mxPoint x="80" y="199.99999999999994" as="sourcePoint" />
          </mxGeometry>
        </mxCell>
        <mxCell id="YgRYtaa7pJsk0RgAJNCK-62" style="edgeStyle=orthogonalEdgeStyle;rounded=0;orthogonalLoop=1;jettySize=auto;html=1;endArrow=none;endFill=0;" parent="1" edge="1">
          <mxGeometry relative="1" as="geometry">
            <mxPoint x="180" y="200" as="targetPoint" />
            <mxPoint x="120" y="200" as="sourcePoint" />
          </mxGeometry>
        </mxCell>
        <mxCell id="YgRYtaa7pJsk0RgAJNCK-64" value="" style="endArrow=none;html=1;rounded=0;" parent="1" edge="1">
          <mxGeometry width="50" height="50" relative="1" as="geometry">
            <mxPoint x="180" y="200" as="sourcePoint" />
            <mxPoint x="180" y="120" as="targetPoint" />
          </mxGeometry>
        </mxCell>
        <mxCell id="YgRYtaa7pJsk0RgAJNCK-66" style="edgeStyle=orthogonalEdgeStyle;rounded=0;orthogonalLoop=1;jettySize=auto;html=1;exitX=0;exitY=0.5;exitDx=0;exitDy=0;exitPerimeter=0;endArrow=none;endFill=0;" parent="1" edge="1">
          <mxGeometry relative="1" as="geometry">
            <mxPoint x="40" y="240.23809523809518" as="targetPoint" />
            <mxPoint x="80.00000000000006" y="239.99999999999994" as="sourcePoint" />
          </mxGeometry>
        </mxCell>
        <mxCell id="YgRYtaa7pJsk0RgAJNCK-73" style="edgeStyle=orthogonalEdgeStyle;rounded=0;orthogonalLoop=1;jettySize=auto;html=1;exitX=0;exitY=0.5;exitDx=0;exitDy=0;exitPerimeter=0;endArrow=none;endFill=0;" parent="1" edge="1">
          <mxGeometry relative="1" as="geometry">
            <mxPoint x="40" y="360.2380952380952" as="targetPoint" />
            <mxPoint x="80" y="360" as="sourcePoint" />
          </mxGeometry>
        </mxCell>
        <mxCell id="YgRYtaa7pJsk0RgAJNCK-81" style="edgeStyle=orthogonalEdgeStyle;rounded=0;orthogonalLoop=1;jettySize=auto;html=1;exitX=0;exitY=0.5;exitDx=0;exitDy=0;exitPerimeter=0;endArrow=none;endFill=0;" parent="1" edge="1">
          <mxGeometry relative="1" as="geometry">
            <mxPoint x="40" y="280" as="targetPoint" />
            <mxPoint x="80" y="280" as="sourcePoint" />
          </mxGeometry>
        </mxCell>
        <mxCell id="YgRYtaa7pJsk0RgAJNCK-84" style="edgeStyle=orthogonalEdgeStyle;rounded=0;orthogonalLoop=1;jettySize=auto;html=1;endArrow=none;endFill=0;" parent="1" edge="1">
          <mxGeometry relative="1" as="geometry">
            <mxPoint x="140" y="279.9767441860465" as="targetPoint" />
            <mxPoint x="120" y="280" as="sourcePoint" />
          </mxGeometry>
        </mxCell>
        <mxCell id="YgRYtaa7pJsk0RgAJNCK-83" value="" style="endArrow=none;html=1;rounded=0;" parent="1" edge="1">
          <mxGeometry width="50" height="50" relative="1" as="geometry">
            <mxPoint x="140" y="280" as="sourcePoint" />
            <mxPoint x="140" y="240" as="targetPoint" />
          </mxGeometry>
        </mxCell>
        <mxCell id="YgRYtaa7pJsk0RgAJNCK-85" style="edgeStyle=orthogonalEdgeStyle;rounded=0;orthogonalLoop=1;jettySize=auto;html=1;exitX=0;exitY=0.5;exitDx=0;exitDy=0;exitPerimeter=0;endArrow=none;endFill=0;" parent="1" edge="1">
          <mxGeometry relative="1" as="geometry">
            <mxPoint x="39.58" y="320" as="targetPoint" />
            <mxPoint x="79.57999999999998" y="319.99999999999994" as="sourcePoint" />
          </mxGeometry>
        </mxCell>
        <mxCell id="YgRYtaa7pJsk0RgAJNCK-87" value="" style="endArrow=none;html=1;rounded=0;" parent="1" edge="1">
          <mxGeometry width="50" height="50" relative="1" as="geometry">
            <mxPoint x="140" y="320" as="sourcePoint" />
            <mxPoint x="140" y="280" as="targetPoint" />
          </mxGeometry>
        </mxCell>
        <mxCell id="YgRYtaa7pJsk0RgAJNCK-88" style="edgeStyle=orthogonalEdgeStyle;rounded=0;orthogonalLoop=1;jettySize=auto;html=1;endArrow=none;endFill=0;" parent="1" edge="1">
          <mxGeometry relative="1" as="geometry">
            <mxPoint x="139.58" y="319.94674418604654" as="targetPoint" />
            <mxPoint x="120" y="320" as="sourcePoint" />
          </mxGeometry>
        </mxCell>
        <mxCell id="gb2hE5WefPyKML-K0fer-38" value="PB1" style="group;labelPosition=center;verticalLabelPosition=top;align=center;verticalAlign=bottom;fontSize=10;" parent="1" vertex="1" connectable="0">
          <mxGeometry x="79.99999999999999" y="110" width="40" height="20" as="geometry" />
        </mxCell>
        <mxCell id="gb2hE5WefPyKML-K0fer-39" value="" style="endArrow=none;html=1;rounded=0;" parent="gb2hE5WefPyKML-K0fer-38" edge="1">
          <mxGeometry width="50" height="50" relative="1" as="geometry">
            <mxPoint y="10" as="sourcePoint" />
            <mxPoint x="15" y="10" as="targetPoint" />
          </mxGeometry>
        </mxCell>
        <mxCell id="gb2hE5WefPyKML-K0fer-40" value="" style="endArrow=none;html=1;rounded=0;" parent="gb2hE5WefPyKML-K0fer-38" edge="1">
          <mxGeometry width="50" height="50" relative="1" as="geometry">
            <mxPoint x="14.920000000000002" as="sourcePoint" />
            <mxPoint x="14.920000000000002" y="20" as="targetPoint" />
          </mxGeometry>
        </mxCell>
        <mxCell id="gb2hE5WefPyKML-K0fer-41" value="" style="endArrow=none;html=1;rounded=0;" parent="gb2hE5WefPyKML-K0fer-38" edge="1">
          <mxGeometry width="50" height="50" relative="1" as="geometry">
            <mxPoint x="25" as="sourcePoint" />
            <mxPoint x="25" y="20" as="targetPoint" />
          </mxGeometry>
        </mxCell>
        <mxCell id="gb2hE5WefPyKML-K0fer-42" value="" style="endArrow=none;html=1;rounded=0;" parent="gb2hE5WefPyKML-K0fer-38" edge="1">
          <mxGeometry width="50" height="50" relative="1" as="geometry">
            <mxPoint x="25" y="10" as="sourcePoint" />
            <mxPoint x="40" y="10" as="targetPoint" />
          </mxGeometry>
        </mxCell>
        <mxCell id="gb2hE5WefPyKML-K0fer-64" value="" style="endArrow=none;html=1;rounded=0;" parent="1" edge="1">
          <mxGeometry width="50" height="50" relative="1" as="geometry">
            <mxPoint x="120" y="80" as="sourcePoint" />
            <mxPoint x="340.7164251982276" y="80" as="targetPoint" />
          </mxGeometry>
        </mxCell>
        <mxCell id="gb2hE5WefPyKML-K0fer-65" value="PBE" style="group;labelPosition=center;verticalLabelPosition=top;align=center;verticalAlign=bottom;fontSize=10;" parent="1" vertex="1" connectable="0">
          <mxGeometry x="80" y="70" width="40" height="20" as="geometry" />
        </mxCell>
        <mxCell id="gb2hE5WefPyKML-K0fer-66" value="" style="endArrow=none;html=1;rounded=0;" parent="gb2hE5WefPyKML-K0fer-65" edge="1">
          <mxGeometry width="50" height="50" relative="1" as="geometry">
            <mxPoint y="10" as="sourcePoint" />
            <mxPoint x="15" y="10" as="targetPoint" />
          </mxGeometry>
        </mxCell>
        <mxCell id="gb2hE5WefPyKML-K0fer-67" value="" style="endArrow=none;html=1;rounded=0;" parent="gb2hE5WefPyKML-K0fer-65" edge="1">
          <mxGeometry width="50" height="50" relative="1" as="geometry">
            <mxPoint x="14.920000000000002" as="sourcePoint" />
            <mxPoint x="14.920000000000002" y="20" as="targetPoint" />
          </mxGeometry>
        </mxCell>
        <mxCell id="gb2hE5WefPyKML-K0fer-68" value="" style="endArrow=none;html=1;rounded=0;" parent="gb2hE5WefPyKML-K0fer-65" edge="1">
          <mxGeometry width="50" height="50" relative="1" as="geometry">
            <mxPoint x="25" as="sourcePoint" />
            <mxPoint x="25" y="20" as="targetPoint" />
          </mxGeometry>
        </mxCell>
        <mxCell id="gb2hE5WefPyKML-K0fer-69" value="" style="endArrow=none;html=1;rounded=0;" parent="gb2hE5WefPyKML-K0fer-65" edge="1">
          <mxGeometry width="50" height="50" relative="1" as="geometry">
            <mxPoint x="25" y="10" as="sourcePoint" />
            <mxPoint x="40" y="10" as="targetPoint" />
          </mxGeometry>
        </mxCell>
        <mxCell id="gb2hE5WefPyKML-K0fer-70" value="" style="endArrow=none;html=1;rounded=0;" parent="gb2hE5WefPyKML-K0fer-65" edge="1">
          <mxGeometry width="50" height="50" relative="1" as="geometry">
            <mxPoint x="15" y="20" as="sourcePoint" />
            <mxPoint x="25" as="targetPoint" />
          </mxGeometry>
        </mxCell>
        <mxCell id="gb2hE5WefPyKML-K0fer-72" value="InFunzione" style="group;labelPosition=center;verticalLabelPosition=top;align=center;verticalAlign=bottom;fontSize=10;" parent="1" vertex="1" connectable="0">
          <mxGeometry x="79.99999999999999" y="150" width="40" height="20" as="geometry" />
        </mxCell>
        <mxCell id="gb2hE5WefPyKML-K0fer-73" value="" style="endArrow=none;html=1;rounded=0;" parent="gb2hE5WefPyKML-K0fer-72" edge="1">
          <mxGeometry width="50" height="50" relative="1" as="geometry">
            <mxPoint y="10" as="sourcePoint" />
            <mxPoint x="15" y="10" as="targetPoint" />
          </mxGeometry>
        </mxCell>
        <mxCell id="gb2hE5WefPyKML-K0fer-74" value="" style="endArrow=none;html=1;rounded=0;" parent="gb2hE5WefPyKML-K0fer-72" edge="1">
          <mxGeometry width="50" height="50" relative="1" as="geometry">
            <mxPoint x="14.920000000000002" as="sourcePoint" />
            <mxPoint x="14.920000000000002" y="20" as="targetPoint" />
          </mxGeometry>
        </mxCell>
        <mxCell id="gb2hE5WefPyKML-K0fer-75" value="" style="endArrow=none;html=1;rounded=0;" parent="gb2hE5WefPyKML-K0fer-72" edge="1">
          <mxGeometry width="50" height="50" relative="1" as="geometry">
            <mxPoint x="25" as="sourcePoint" />
            <mxPoint x="25" y="20" as="targetPoint" />
          </mxGeometry>
        </mxCell>
        <mxCell id="gb2hE5WefPyKML-K0fer-76" value="" style="endArrow=none;html=1;rounded=0;" parent="gb2hE5WefPyKML-K0fer-72" edge="1">
          <mxGeometry width="50" height="50" relative="1" as="geometry">
            <mxPoint x="25" y="10" as="sourcePoint" />
            <mxPoint x="40" y="10" as="targetPoint" />
          </mxGeometry>
        </mxCell>
        <mxCell id="gb2hE5WefPyKML-K0fer-77" value="StopRichiesto" style="group;labelPosition=center;verticalLabelPosition=top;align=center;verticalAlign=bottom;fontSize=10;" parent="1" vertex="1" connectable="0">
          <mxGeometry x="140" y="110" width="40" height="20" as="geometry" />
        </mxCell>
        <mxCell id="gb2hE5WefPyKML-K0fer-78" value="" style="endArrow=none;html=1;rounded=0;" parent="gb2hE5WefPyKML-K0fer-77" edge="1">
          <mxGeometry width="50" height="50" relative="1" as="geometry">
            <mxPoint y="10" as="sourcePoint" />
            <mxPoint x="15" y="10" as="targetPoint" />
          </mxGeometry>
        </mxCell>
        <mxCell id="gb2hE5WefPyKML-K0fer-79" value="" style="endArrow=none;html=1;rounded=0;" parent="gb2hE5WefPyKML-K0fer-77" edge="1">
          <mxGeometry width="50" height="50" relative="1" as="geometry">
            <mxPoint x="14.920000000000002" as="sourcePoint" />
            <mxPoint x="14.920000000000002" y="20" as="targetPoint" />
          </mxGeometry>
        </mxCell>
        <mxCell id="gb2hE5WefPyKML-K0fer-80" value="" style="endArrow=none;html=1;rounded=0;" parent="gb2hE5WefPyKML-K0fer-77" edge="1">
          <mxGeometry width="50" height="50" relative="1" as="geometry">
            <mxPoint x="25" as="sourcePoint" />
            <mxPoint x="25" y="20" as="targetPoint" />
          </mxGeometry>
        </mxCell>
        <mxCell id="gb2hE5WefPyKML-K0fer-81" value="" style="endArrow=none;html=1;rounded=0;" parent="gb2hE5WefPyKML-K0fer-77" edge="1">
          <mxGeometry width="50" height="50" relative="1" as="geometry">
            <mxPoint x="25" y="10" as="sourcePoint" />
            <mxPoint x="40" y="10" as="targetPoint" />
          </mxGeometry>
        </mxCell>
        <mxCell id="gb2hE5WefPyKML-K0fer-82" value="" style="endArrow=none;html=1;rounded=0;" parent="gb2hE5WefPyKML-K0fer-77" edge="1">
          <mxGeometry width="50" height="50" relative="1" as="geometry">
            <mxPoint x="15" y="20" as="sourcePoint" />
            <mxPoint x="25" as="targetPoint" />
          </mxGeometry>
        </mxCell>
        <mxCell id="gb2hE5WefPyKML-K0fer-84" value="PBE" style="group;labelPosition=center;verticalLabelPosition=top;align=center;verticalAlign=bottom;fontSize=10;" parent="1" vertex="1" connectable="0">
          <mxGeometry x="220" y="110" width="40" height="20" as="geometry" />
        </mxCell>
        <mxCell id="gb2hE5WefPyKML-K0fer-85" value="" style="endArrow=none;html=1;rounded=0;" parent="gb2hE5WefPyKML-K0fer-84" edge="1">
          <mxGeometry width="50" height="50" relative="1" as="geometry">
            <mxPoint y="10" as="sourcePoint" />
            <mxPoint x="15" y="10" as="targetPoint" />
          </mxGeometry>
        </mxCell>
        <mxCell id="gb2hE5WefPyKML-K0fer-86" value="" style="endArrow=none;html=1;rounded=0;" parent="gb2hE5WefPyKML-K0fer-84" edge="1">
          <mxGeometry width="50" height="50" relative="1" as="geometry">
            <mxPoint x="14.920000000000002" as="sourcePoint" />
            <mxPoint x="14.920000000000002" y="20" as="targetPoint" />
          </mxGeometry>
        </mxCell>
        <mxCell id="gb2hE5WefPyKML-K0fer-87" value="" style="endArrow=none;html=1;rounded=0;" parent="gb2hE5WefPyKML-K0fer-84" edge="1">
          <mxGeometry width="50" height="50" relative="1" as="geometry">
            <mxPoint x="25" as="sourcePoint" />
            <mxPoint x="25" y="20" as="targetPoint" />
          </mxGeometry>
        </mxCell>
        <mxCell id="gb2hE5WefPyKML-K0fer-88" value="" style="endArrow=none;html=1;rounded=0;" parent="gb2hE5WefPyKML-K0fer-84" edge="1">
          <mxGeometry width="50" height="50" relative="1" as="geometry">
            <mxPoint x="25" y="10" as="sourcePoint" />
            <mxPoint x="40" y="10" as="targetPoint" />
          </mxGeometry>
        </mxCell>
        <mxCell id="gb2hE5WefPyKML-K0fer-101" value="inSmistamento" style="group;labelPosition=center;verticalLabelPosition=top;align=center;verticalAlign=bottom;fontSize=10;" parent="1" vertex="1" connectable="0">
          <mxGeometry x="79.99999999999999" y="190" width="40" height="20" as="geometry" />
        </mxCell>
        <mxCell id="gb2hE5WefPyKML-K0fer-102" value="" style="endArrow=none;html=1;rounded=0;" parent="gb2hE5WefPyKML-K0fer-101" edge="1">
          <mxGeometry width="50" height="50" relative="1" as="geometry">
            <mxPoint y="10" as="sourcePoint" />
            <mxPoint x="15" y="10" as="targetPoint" />
          </mxGeometry>
        </mxCell>
        <mxCell id="gb2hE5WefPyKML-K0fer-103" value="" style="endArrow=none;html=1;rounded=0;" parent="gb2hE5WefPyKML-K0fer-101" edge="1">
          <mxGeometry width="50" height="50" relative="1" as="geometry">
            <mxPoint x="14.920000000000002" as="sourcePoint" />
            <mxPoint x="14.920000000000002" y="20" as="targetPoint" />
          </mxGeometry>
        </mxCell>
        <mxCell id="gb2hE5WefPyKML-K0fer-104" value="" style="endArrow=none;html=1;rounded=0;" parent="gb2hE5WefPyKML-K0fer-101" edge="1">
          <mxGeometry width="50" height="50" relative="1" as="geometry">
            <mxPoint x="25" as="sourcePoint" />
            <mxPoint x="25" y="20" as="targetPoint" />
          </mxGeometry>
        </mxCell>
        <mxCell id="gb2hE5WefPyKML-K0fer-105" value="" style="endArrow=none;html=1;rounded=0;" parent="gb2hE5WefPyKML-K0fer-101" edge="1">
          <mxGeometry width="50" height="50" relative="1" as="geometry">
            <mxPoint x="25" y="10" as="sourcePoint" />
            <mxPoint x="40" y="10" as="targetPoint" />
          </mxGeometry>
        </mxCell>
        <mxCell id="gb2hE5WefPyKML-K0fer-136" value="PB2" style="group;labelPosition=center;verticalLabelPosition=top;align=center;verticalAlign=bottom;fontSize=10;" parent="1" vertex="1" connectable="0">
          <mxGeometry x="80" y="230" width="40" height="20" as="geometry" />
        </mxCell>
        <mxCell id="gb2hE5WefPyKML-K0fer-137" value="" style="endArrow=none;html=1;rounded=0;" parent="gb2hE5WefPyKML-K0fer-136" edge="1">
          <mxGeometry width="50" height="50" relative="1" as="geometry">
            <mxPoint y="10" as="sourcePoint" />
            <mxPoint x="15" y="10" as="targetPoint" />
          </mxGeometry>
        </mxCell>
        <mxCell id="gb2hE5WefPyKML-K0fer-138" value="" style="endArrow=none;html=1;rounded=0;" parent="gb2hE5WefPyKML-K0fer-136" edge="1">
          <mxGeometry width="50" height="50" relative="1" as="geometry">
            <mxPoint x="14.920000000000002" as="sourcePoint" />
            <mxPoint x="14.920000000000002" y="20" as="targetPoint" />
          </mxGeometry>
        </mxCell>
        <mxCell id="gb2hE5WefPyKML-K0fer-139" value="" style="endArrow=none;html=1;rounded=0;" parent="gb2hE5WefPyKML-K0fer-136" edge="1">
          <mxGeometry width="50" height="50" relative="1" as="geometry">
            <mxPoint x="25" as="sourcePoint" />
            <mxPoint x="25" y="20" as="targetPoint" />
          </mxGeometry>
        </mxCell>
        <mxCell id="gb2hE5WefPyKML-K0fer-140" value="" style="endArrow=none;html=1;rounded=0;" parent="gb2hE5WefPyKML-K0fer-136" edge="1">
          <mxGeometry width="50" height="50" relative="1" as="geometry">
            <mxPoint x="25" y="10" as="sourcePoint" />
            <mxPoint x="40" y="10" as="targetPoint" />
          </mxGeometry>
        </mxCell>
        <mxCell id="gb2hE5WefPyKML-K0fer-141" value="" style="endArrow=none;html=1;rounded=0;" parent="gb2hE5WefPyKML-K0fer-136" edge="1">
          <mxGeometry width="50" height="50" relative="1" as="geometry">
            <mxPoint x="15" y="20" as="sourcePoint" />
            <mxPoint x="25" as="targetPoint" />
          </mxGeometry>
        </mxCell>
        <mxCell id="gb2hE5WefPyKML-K0fer-149" value="" style="endArrow=none;html=1;rounded=0;" parent="1" edge="1">
          <mxGeometry width="50" height="50" relative="1" as="geometry">
            <mxPoint x="375" y="240" as="sourcePoint" />
            <mxPoint x="420" y="240" as="targetPoint" />
          </mxGeometry>
        </mxCell>
        <mxCell id="gb2hE5WefPyKML-K0fer-150" value="" style="endArrow=none;html=1;rounded=0;" parent="1" edge="1">
          <mxGeometry width="50" height="50" relative="1" as="geometry">
            <mxPoint x="120" y="240" as="sourcePoint" />
            <mxPoint x="340" y="240" as="targetPoint" />
          </mxGeometry>
        </mxCell>
        <mxCell id="gb2hE5WefPyKML-K0fer-151" value="FS1" style="group;labelPosition=center;verticalLabelPosition=top;align=center;verticalAlign=bottom;fontSize=10;" parent="1" vertex="1" connectable="0">
          <mxGeometry x="80" y="270" width="40" height="20" as="geometry" />
        </mxCell>
        <mxCell id="gb2hE5WefPyKML-K0fer-152" value="" style="endArrow=none;html=1;rounded=0;" parent="gb2hE5WefPyKML-K0fer-151" edge="1">
          <mxGeometry width="50" height="50" relative="1" as="geometry">
            <mxPoint y="10" as="sourcePoint" />
            <mxPoint x="15" y="10" as="targetPoint" />
          </mxGeometry>
        </mxCell>
        <mxCell id="gb2hE5WefPyKML-K0fer-153" value="" style="endArrow=none;html=1;rounded=0;" parent="gb2hE5WefPyKML-K0fer-151" edge="1">
          <mxGeometry width="50" height="50" relative="1" as="geometry">
            <mxPoint x="14.920000000000002" as="sourcePoint" />
            <mxPoint x="14.920000000000002" y="20" as="targetPoint" />
          </mxGeometry>
        </mxCell>
        <mxCell id="gb2hE5WefPyKML-K0fer-154" value="" style="endArrow=none;html=1;rounded=0;" parent="gb2hE5WefPyKML-K0fer-151" edge="1">
          <mxGeometry width="50" height="50" relative="1" as="geometry">
            <mxPoint x="25" as="sourcePoint" />
            <mxPoint x="25" y="20" as="targetPoint" />
          </mxGeometry>
        </mxCell>
        <mxCell id="gb2hE5WefPyKML-K0fer-155" value="" style="endArrow=none;html=1;rounded=0;" parent="gb2hE5WefPyKML-K0fer-151" edge="1">
          <mxGeometry width="50" height="50" relative="1" as="geometry">
            <mxPoint x="25" y="10" as="sourcePoint" />
            <mxPoint x="40" y="10" as="targetPoint" />
          </mxGeometry>
        </mxCell>
        <mxCell id="gb2hE5WefPyKML-K0fer-156" value="FS2" style="group;labelPosition=center;verticalLabelPosition=top;align=center;verticalAlign=bottom;fontSize=10;" parent="1" vertex="1" connectable="0">
          <mxGeometry x="80" y="310" width="40" height="20" as="geometry" />
        </mxCell>
        <mxCell id="gb2hE5WefPyKML-K0fer-157" value="" style="endArrow=none;html=1;rounded=0;" parent="gb2hE5WefPyKML-K0fer-156" edge="1">
          <mxGeometry width="50" height="50" relative="1" as="geometry">
            <mxPoint y="10" as="sourcePoint" />
            <mxPoint x="15" y="10" as="targetPoint" />
          </mxGeometry>
        </mxCell>
        <mxCell id="gb2hE5WefPyKML-K0fer-158" value="" style="endArrow=none;html=1;rounded=0;" parent="gb2hE5WefPyKML-K0fer-156" edge="1">
          <mxGeometry width="50" height="50" relative="1" as="geometry">
            <mxPoint x="14.920000000000002" as="sourcePoint" />
            <mxPoint x="14.920000000000002" y="20" as="targetPoint" />
          </mxGeometry>
        </mxCell>
        <mxCell id="gb2hE5WefPyKML-K0fer-159" value="" style="endArrow=none;html=1;rounded=0;" parent="gb2hE5WefPyKML-K0fer-156" edge="1">
          <mxGeometry width="50" height="50" relative="1" as="geometry">
            <mxPoint x="25" as="sourcePoint" />
            <mxPoint x="25" y="20" as="targetPoint" />
          </mxGeometry>
        </mxCell>
        <mxCell id="gb2hE5WefPyKML-K0fer-160" value="" style="endArrow=none;html=1;rounded=0;" parent="gb2hE5WefPyKML-K0fer-156" edge="1">
          <mxGeometry width="50" height="50" relative="1" as="geometry">
            <mxPoint x="25" y="10" as="sourcePoint" />
            <mxPoint x="40" y="10" as="targetPoint" />
          </mxGeometry>
        </mxCell>
        <mxCell id="gb2hE5WefPyKML-K0fer-161" value="InFunzione" style="group;labelPosition=center;verticalLabelPosition=top;align=center;verticalAlign=bottom;fontSize=10;" parent="1" vertex="1" connectable="0">
          <mxGeometry x="80" y="350" width="40" height="20" as="geometry" />
        </mxCell>
        <mxCell id="gb2hE5WefPyKML-K0fer-162" value="" style="endArrow=none;html=1;rounded=0;" parent="gb2hE5WefPyKML-K0fer-161" edge="1">
          <mxGeometry width="50" height="50" relative="1" as="geometry">
            <mxPoint y="10" as="sourcePoint" />
            <mxPoint x="15" y="10" as="targetPoint" />
          </mxGeometry>
        </mxCell>
        <mxCell id="gb2hE5WefPyKML-K0fer-163" value="" style="endArrow=none;html=1;rounded=0;" parent="gb2hE5WefPyKML-K0fer-161" edge="1">
          <mxGeometry width="50" height="50" relative="1" as="geometry">
            <mxPoint x="14.920000000000002" as="sourcePoint" />
            <mxPoint x="14.920000000000002" y="20" as="targetPoint" />
          </mxGeometry>
        </mxCell>
        <mxCell id="gb2hE5WefPyKML-K0fer-164" value="" style="endArrow=none;html=1;rounded=0;" parent="gb2hE5WefPyKML-K0fer-161" edge="1">
          <mxGeometry width="50" height="50" relative="1" as="geometry">
            <mxPoint x="25" as="sourcePoint" />
            <mxPoint x="25" y="20" as="targetPoint" />
          </mxGeometry>
        </mxCell>
        <mxCell id="gb2hE5WefPyKML-K0fer-165" value="" style="endArrow=none;html=1;rounded=0;" parent="gb2hE5WefPyKML-K0fer-161" edge="1">
          <mxGeometry width="50" height="50" relative="1" as="geometry">
            <mxPoint x="25" y="10" as="sourcePoint" />
            <mxPoint x="40" y="10" as="targetPoint" />
          </mxGeometry>
        </mxCell>
        <mxCell id="gb2hE5WefPyKML-K0fer-166" value="" style="endArrow=none;html=1;rounded=0;" parent="gb2hE5WefPyKML-K0fer-161" edge="1">
          <mxGeometry width="50" height="50" relative="1" as="geometry">
            <mxPoint x="15" y="20" as="sourcePoint" />
            <mxPoint x="25" as="targetPoint" />
          </mxGeometry>
        </mxCell>
        <mxCell id="gb2hE5WefPyKML-K0fer-181" value="" style="endArrow=none;html=1;rounded=0;" parent="1" edge="1">
          <mxGeometry width="50" height="50" relative="1" as="geometry">
            <mxPoint x="375" y="360" as="sourcePoint" />
            <mxPoint x="420" y="360" as="targetPoint" />
          </mxGeometry>
        </mxCell>
        <mxCell id="gb2hE5WefPyKML-K0fer-182" value="" style="endArrow=none;html=1;rounded=0;" parent="1" edge="1">
          <mxGeometry width="50" height="50" relative="1" as="geometry">
            <mxPoint x="117.247314453125" y="360" as="sourcePoint" />
            <mxPoint x="340" y="360" as="targetPoint" />
          </mxGeometry>
        </mxCell>
        <mxCell id="gb2hE5WefPyKML-K0fer-207" value="" style="endArrow=none;html=1;rounded=0;" parent="1" edge="1">
          <mxGeometry width="50" height="50" relative="1" as="geometry">
            <mxPoint x="375" y="400" as="sourcePoint" />
            <mxPoint x="420" y="400" as="targetPoint" />
          </mxGeometry>
        </mxCell>
        <mxCell id="gb2hE5WefPyKML-K0fer-208" value="" style="endArrow=none;html=1;rounded=0;" parent="1" edge="1">
          <mxGeometry width="50" height="50" relative="1" as="geometry">
            <mxPoint x="39.5" y="400" as="sourcePoint" />
            <mxPoint x="340" y="400" as="targetPoint" />
          </mxGeometry>
        </mxCell>
        <mxCell id="gb2hE5WefPyKML-K0fer-215" value="InFunzione" style="group;labelPosition=center;verticalLabelPosition=top;align=center;verticalAlign=bottom;fontSize=10;" parent="1" vertex="1" connectable="0">
          <mxGeometry x="80" y="430" width="40" height="20" as="geometry" />
        </mxCell>
        <mxCell id="gb2hE5WefPyKML-K0fer-216" value="" style="endArrow=none;html=1;rounded=0;" parent="gb2hE5WefPyKML-K0fer-215" edge="1">
          <mxGeometry width="50" height="50" relative="1" as="geometry">
            <mxPoint y="10" as="sourcePoint" />
            <mxPoint x="15" y="10" as="targetPoint" />
          </mxGeometry>
        </mxCell>
        <mxCell id="gb2hE5WefPyKML-K0fer-217" value="" style="endArrow=none;html=1;rounded=0;" parent="gb2hE5WefPyKML-K0fer-215" edge="1">
          <mxGeometry width="50" height="50" relative="1" as="geometry">
            <mxPoint x="14.920000000000002" as="sourcePoint" />
            <mxPoint x="14.920000000000002" y="20" as="targetPoint" />
          </mxGeometry>
        </mxCell>
        <mxCell id="gb2hE5WefPyKML-K0fer-218" value="" style="endArrow=none;html=1;rounded=0;" parent="gb2hE5WefPyKML-K0fer-215" edge="1">
          <mxGeometry width="50" height="50" relative="1" as="geometry">
            <mxPoint x="25" as="sourcePoint" />
            <mxPoint x="25" y="20" as="targetPoint" />
          </mxGeometry>
        </mxCell>
        <mxCell id="gb2hE5WefPyKML-K0fer-219" value="" style="endArrow=none;html=1;rounded=0;" parent="gb2hE5WefPyKML-K0fer-215" edge="1">
          <mxGeometry width="50" height="50" relative="1" as="geometry">
            <mxPoint x="25" y="10" as="sourcePoint" />
            <mxPoint x="40" y="10" as="targetPoint" />
          </mxGeometry>
        </mxCell>
        <mxCell id="gb2hE5WefPyKML-K0fer-221" value="" style="endArrow=none;html=1;rounded=0;" parent="1" edge="1">
          <mxGeometry width="50" height="50" relative="1" as="geometry">
            <mxPoint x="120" y="440" as="sourcePoint" />
            <mxPoint x="340" y="440" as="targetPoint" />
          </mxGeometry>
        </mxCell>
        <mxCell id="gb2hE5WefPyKML-K0fer-222" value="" style="endArrow=none;html=1;rounded=0;" parent="1" edge="1">
          <mxGeometry width="50" height="50" relative="1" as="geometry">
            <mxPoint x="40" y="440" as="sourcePoint" />
            <mxPoint x="80" y="440" as="targetPoint" />
          </mxGeometry>
        </mxCell>
        <mxCell id="gb2hE5WefPyKML-K0fer-224" value="" style="endArrow=none;html=1;rounded=0;" parent="1" edge="1">
          <mxGeometry width="50" height="50" relative="1" as="geometry">
            <mxPoint x="375" y="440" as="sourcePoint" />
            <mxPoint x="420" y="440" as="targetPoint" />
          </mxGeometry>
        </mxCell>
        <mxCell id="gb2hE5WefPyKML-K0fer-231" value="PBE" style="group;labelPosition=center;verticalLabelPosition=top;align=center;verticalAlign=bottom;fontSize=10;" parent="1" vertex="1" connectable="0">
          <mxGeometry x="80" y="550" width="40" height="20" as="geometry" />
        </mxCell>
        <mxCell id="gb2hE5WefPyKML-K0fer-232" value="" style="endArrow=none;html=1;rounded=0;" parent="gb2hE5WefPyKML-K0fer-231" edge="1">
          <mxGeometry width="50" height="50" relative="1" as="geometry">
            <mxPoint y="10" as="sourcePoint" />
            <mxPoint x="15" y="10" as="targetPoint" />
          </mxGeometry>
        </mxCell>
        <mxCell id="gb2hE5WefPyKML-K0fer-233" value="" style="endArrow=none;html=1;rounded=0;" parent="gb2hE5WefPyKML-K0fer-231" edge="1">
          <mxGeometry width="50" height="50" relative="1" as="geometry">
            <mxPoint x="14.920000000000002" as="sourcePoint" />
            <mxPoint x="14.920000000000002" y="20" as="targetPoint" />
          </mxGeometry>
        </mxCell>
        <mxCell id="gb2hE5WefPyKML-K0fer-234" value="" style="endArrow=none;html=1;rounded=0;" parent="gb2hE5WefPyKML-K0fer-231" edge="1">
          <mxGeometry width="50" height="50" relative="1" as="geometry">
            <mxPoint x="25" as="sourcePoint" />
            <mxPoint x="25" y="20" as="targetPoint" />
          </mxGeometry>
        </mxCell>
        <mxCell id="gb2hE5WefPyKML-K0fer-235" value="" style="endArrow=none;html=1;rounded=0;" parent="gb2hE5WefPyKML-K0fer-231" edge="1">
          <mxGeometry width="50" height="50" relative="1" as="geometry">
            <mxPoint x="25" y="10" as="sourcePoint" />
            <mxPoint x="40" y="10" as="targetPoint" />
          </mxGeometry>
        </mxCell>
        <mxCell id="gb2hE5WefPyKML-K0fer-236" value="" style="endArrow=none;html=1;rounded=0;" parent="gb2hE5WefPyKML-K0fer-231" edge="1">
          <mxGeometry width="50" height="50" relative="1" as="geometry">
            <mxPoint x="15" y="20" as="sourcePoint" />
            <mxPoint x="25" as="targetPoint" />
          </mxGeometry>
        </mxCell>
        <mxCell id="gb2hE5WefPyKML-K0fer-242" value="" style="endArrow=none;html=1;rounded=0;" parent="1" edge="1">
          <mxGeometry width="50" height="50" relative="1" as="geometry">
            <mxPoint x="140" y="520" as="sourcePoint" />
            <mxPoint x="140" y="480" as="targetPoint" />
          </mxGeometry>
        </mxCell>
        <mxCell id="gb2hE5WefPyKML-K0fer-244" value="FS1" style="group;labelPosition=center;verticalLabelPosition=top;align=center;verticalAlign=bottom;fontSize=10;" parent="1" vertex="1" connectable="0">
          <mxGeometry x="80" y="470" width="40" height="20" as="geometry" />
        </mxCell>
        <mxCell id="gb2hE5WefPyKML-K0fer-245" value="" style="endArrow=none;html=1;rounded=0;" parent="gb2hE5WefPyKML-K0fer-244" edge="1">
          <mxGeometry width="50" height="50" relative="1" as="geometry">
            <mxPoint y="10" as="sourcePoint" />
            <mxPoint x="15" y="10" as="targetPoint" />
          </mxGeometry>
        </mxCell>
        <mxCell id="gb2hE5WefPyKML-K0fer-246" value="" style="endArrow=none;html=1;rounded=0;" parent="gb2hE5WefPyKML-K0fer-244" edge="1">
          <mxGeometry width="50" height="50" relative="1" as="geometry">
            <mxPoint x="14.920000000000002" as="sourcePoint" />
            <mxPoint x="14.920000000000002" y="20" as="targetPoint" />
          </mxGeometry>
        </mxCell>
        <mxCell id="gb2hE5WefPyKML-K0fer-247" value="" style="endArrow=none;html=1;rounded=0;" parent="gb2hE5WefPyKML-K0fer-244" edge="1">
          <mxGeometry width="50" height="50" relative="1" as="geometry">
            <mxPoint x="25" as="sourcePoint" />
            <mxPoint x="25" y="20" as="targetPoint" />
          </mxGeometry>
        </mxCell>
        <mxCell id="gb2hE5WefPyKML-K0fer-248" value="" style="endArrow=none;html=1;rounded=0;" parent="gb2hE5WefPyKML-K0fer-244" edge="1">
          <mxGeometry width="50" height="50" relative="1" as="geometry">
            <mxPoint x="25" y="10" as="sourcePoint" />
            <mxPoint x="40" y="10" as="targetPoint" />
          </mxGeometry>
        </mxCell>
        <mxCell id="gb2hE5WefPyKML-K0fer-256" value="FS2" style="group;labelPosition=center;verticalLabelPosition=top;align=center;verticalAlign=bottom;fontSize=10;" parent="1" vertex="1" connectable="0">
          <mxGeometry x="80" y="510" width="40" height="20" as="geometry" />
        </mxCell>
        <mxCell id="gb2hE5WefPyKML-K0fer-257" value="" style="endArrow=none;html=1;rounded=0;" parent="gb2hE5WefPyKML-K0fer-256" edge="1">
          <mxGeometry width="50" height="50" relative="1" as="geometry">
            <mxPoint y="10" as="sourcePoint" />
            <mxPoint x="15" y="10" as="targetPoint" />
          </mxGeometry>
        </mxCell>
        <mxCell id="gb2hE5WefPyKML-K0fer-258" value="" style="endArrow=none;html=1;rounded=0;" parent="gb2hE5WefPyKML-K0fer-256" edge="1">
          <mxGeometry width="50" height="50" relative="1" as="geometry">
            <mxPoint x="14.920000000000002" as="sourcePoint" />
            <mxPoint x="14.920000000000002" y="20" as="targetPoint" />
          </mxGeometry>
        </mxCell>
        <mxCell id="gb2hE5WefPyKML-K0fer-259" value="" style="endArrow=none;html=1;rounded=0;" parent="gb2hE5WefPyKML-K0fer-256" edge="1">
          <mxGeometry width="50" height="50" relative="1" as="geometry">
            <mxPoint x="25" as="sourcePoint" />
            <mxPoint x="25" y="20" as="targetPoint" />
          </mxGeometry>
        </mxCell>
        <mxCell id="gb2hE5WefPyKML-K0fer-260" value="" style="endArrow=none;html=1;rounded=0;" parent="gb2hE5WefPyKML-K0fer-256" edge="1">
          <mxGeometry width="50" height="50" relative="1" as="geometry">
            <mxPoint x="25" y="10" as="sourcePoint" />
            <mxPoint x="40" y="10" as="targetPoint" />
          </mxGeometry>
        </mxCell>
        <mxCell id="gb2hE5WefPyKML-K0fer-266" value="" style="endArrow=none;html=1;rounded=0;" parent="1" edge="1">
          <mxGeometry width="50" height="50" relative="1" as="geometry">
            <mxPoint x="140" y="479.71000000000004" as="sourcePoint" />
            <mxPoint x="340" y="479.97" as="targetPoint" />
          </mxGeometry>
        </mxCell>
        <mxCell id="gb2hE5WefPyKML-K0fer-267" value="" style="endArrow=none;html=1;rounded=0;" parent="1" edge="1">
          <mxGeometry width="50" height="50" relative="1" as="geometry">
            <mxPoint x="375" y="480" as="sourcePoint" />
            <mxPoint x="420" y="480" as="targetPoint" />
          </mxGeometry>
        </mxCell>
        <mxCell id="z6Hrp7nyFzcHLp0yUv2R-9" value="" style="endArrow=none;html=1;rounded=0;" parent="1" edge="1">
          <mxGeometry width="50" height="50" relative="1" as="geometry">
            <mxPoint x="40" y="480" as="sourcePoint" />
            <mxPoint x="80" y="480" as="targetPoint" />
          </mxGeometry>
        </mxCell>
        <mxCell id="z6Hrp7nyFzcHLp0yUv2R-10" value="" style="endArrow=none;html=1;rounded=0;" parent="1" edge="1">
          <mxGeometry width="50" height="50" relative="1" as="geometry">
            <mxPoint x="40" y="520" as="sourcePoint" />
            <mxPoint x="80" y="520" as="targetPoint" />
          </mxGeometry>
        </mxCell>
        <mxCell id="z6Hrp7nyFzcHLp0yUv2R-11" value="" style="endArrow=none;html=1;rounded=0;" parent="1" edge="1">
          <mxGeometry width="50" height="50" relative="1" as="geometry">
            <mxPoint x="120" y="520" as="sourcePoint" />
            <mxPoint x="140" y="520" as="targetPoint" />
          </mxGeometry>
        </mxCell>
        <mxCell id="z6Hrp7nyFzcHLp0yUv2R-12" value="" style="endArrow=none;html=1;rounded=0;" parent="1" edge="1">
          <mxGeometry width="50" height="50" relative="1" as="geometry">
            <mxPoint x="120" y="479.94" as="sourcePoint" />
            <mxPoint x="140" y="479.94" as="targetPoint" />
          </mxGeometry>
        </mxCell>
        <mxCell id="z6Hrp7nyFzcHLp0yUv2R-13" value="" style="endArrow=none;html=1;rounded=0;" parent="1" edge="1">
          <mxGeometry width="50" height="50" relative="1" as="geometry">
            <mxPoint x="375" y="560" as="sourcePoint" />
            <mxPoint x="420" y="560" as="targetPoint" />
          </mxGeometry>
        </mxCell>
        <mxCell id="z6Hrp7nyFzcHLp0yUv2R-14" value="" style="endArrow=none;html=1;rounded=0;" parent="1" edge="1">
          <mxGeometry width="50" height="50" relative="1" as="geometry">
            <mxPoint x="118.72" y="560" as="sourcePoint" />
            <mxPoint x="340" y="560" as="targetPoint" />
          </mxGeometry>
        </mxCell>
        <mxCell id="z6Hrp7nyFzcHLp0yUv2R-15" value="" style="endArrow=none;html=1;rounded=0;" parent="1" edge="1">
          <mxGeometry width="50" height="50" relative="1" as="geometry">
            <mxPoint x="40" y="560" as="sourcePoint" />
            <mxPoint x="80" y="560" as="targetPoint" />
          </mxGeometry>
        </mxCell>
        <mxCell id="XbdiqBnvahFQlufsMgbx-6" value="Emergenza" style="group;labelPosition=center;verticalLabelPosition=top;align=center;verticalAlign=bottom;fontSize=10;" vertex="1" connectable="0" parent="1">
          <mxGeometry x="335" y="70" width="45" height="20" as="geometry" />
        </mxCell>
        <mxCell id="XbdiqBnvahFQlufsMgbx-7" value="" style="verticalLabelPosition=bottom;verticalAlign=top;html=1;shape=mxgraph.basic.arc;startAngle=0.6205801659133483;endAngle=0.8809804521919458;" vertex="1" parent="XbdiqBnvahFQlufsMgbx-6">
          <mxGeometry x="15" width="30" height="20" as="geometry" />
        </mxCell>
        <mxCell id="XbdiqBnvahFQlufsMgbx-8" value="" style="verticalLabelPosition=top;verticalAlign=bottom;html=1;shape=mxgraph.basic.arc;startAngle=0.6205801659133483;endAngle=0.8809804521919458;rotation=-180;labelPosition=center;align=center;" vertex="1" parent="XbdiqBnvahFQlufsMgbx-6">
          <mxGeometry width="30" height="20" as="geometry" />
        </mxCell>
        <mxCell id="XbdiqBnvahFQlufsMgbx-9" value="" style="endArrow=none;html=1;rounded=0;exitX=0.001;exitY=0.358;exitDx=0;exitDy=0;exitPerimeter=0;" edge="1" parent="XbdiqBnvahFQlufsMgbx-6">
          <mxGeometry width="50" height="50" relative="1" as="geometry">
            <mxPoint x="30" y="9.949999999999989" as="sourcePoint" />
            <mxPoint x="40" y="10" as="targetPoint" />
          </mxGeometry>
        </mxCell>
        <mxCell id="XbdiqBnvahFQlufsMgbx-10" value="" style="endArrow=none;html=1;rounded=0;exitX=0.001;exitY=0.358;exitDx=0;exitDy=0;exitPerimeter=0;" edge="1" parent="XbdiqBnvahFQlufsMgbx-6">
          <mxGeometry width="50" height="50" relative="1" as="geometry">
            <mxPoint x="5" y="10" as="sourcePoint" />
            <mxPoint x="15" y="10" as="targetPoint" />
          </mxGeometry>
        </mxCell>
        <mxCell id="XbdiqBnvahFQlufsMgbx-28" value="StopRichiesto" style="group;labelPosition=center;verticalLabelPosition=top;align=center;verticalAlign=bottom;fontSize=10;" vertex="1" connectable="0" parent="1">
          <mxGeometry x="335" y="230" width="45" height="20" as="geometry" />
        </mxCell>
        <mxCell id="XbdiqBnvahFQlufsMgbx-29" value="" style="verticalLabelPosition=bottom;verticalAlign=top;html=1;shape=mxgraph.basic.arc;startAngle=0.6205801659133483;endAngle=0.8809804521919458;" vertex="1" parent="XbdiqBnvahFQlufsMgbx-28">
          <mxGeometry x="15" width="30" height="20" as="geometry" />
        </mxCell>
        <mxCell id="XbdiqBnvahFQlufsMgbx-30" value="" style="verticalLabelPosition=top;verticalAlign=bottom;html=1;shape=mxgraph.basic.arc;startAngle=0.6205801659133483;endAngle=0.8809804521919458;rotation=-180;labelPosition=center;align=center;" vertex="1" parent="XbdiqBnvahFQlufsMgbx-28">
          <mxGeometry width="30" height="20" as="geometry" />
        </mxCell>
        <mxCell id="XbdiqBnvahFQlufsMgbx-31" value="" style="endArrow=none;html=1;rounded=0;exitX=0.001;exitY=0.358;exitDx=0;exitDy=0;exitPerimeter=0;" edge="1" parent="XbdiqBnvahFQlufsMgbx-28">
          <mxGeometry width="50" height="50" relative="1" as="geometry">
            <mxPoint x="30" y="9.949999999999989" as="sourcePoint" />
            <mxPoint x="40" y="10" as="targetPoint" />
          </mxGeometry>
        </mxCell>
        <mxCell id="XbdiqBnvahFQlufsMgbx-32" value="" style="endArrow=none;html=1;rounded=0;exitX=0.001;exitY=0.358;exitDx=0;exitDy=0;exitPerimeter=0;" edge="1" parent="XbdiqBnvahFQlufsMgbx-28">
          <mxGeometry width="50" height="50" relative="1" as="geometry">
            <mxPoint x="5" y="10" as="sourcePoint" />
            <mxPoint x="15" y="10" as="targetPoint" />
          </mxGeometry>
        </mxCell>
        <mxCell id="XbdiqBnvahFQlufsMgbx-33" value="S" style="text;html=1;align=center;verticalAlign=middle;whiteSpace=wrap;rounded=0;fontSize=10;" vertex="1" parent="XbdiqBnvahFQlufsMgbx-28">
          <mxGeometry x="20" y="8.75" width="5" height="2.5" as="geometry" />
        </mxCell>
        <mxCell id="XbdiqBnvahFQlufsMgbx-34" value="StopRichiesto" style="group;labelPosition=center;verticalLabelPosition=top;align=center;verticalAlign=bottom;fontSize=10;" vertex="1" connectable="0" parent="1">
          <mxGeometry x="335" y="350" width="45" height="20" as="geometry" />
        </mxCell>
        <mxCell id="XbdiqBnvahFQlufsMgbx-12" value="" style="verticalLabelPosition=bottom;verticalAlign=top;html=1;shape=mxgraph.basic.arc;startAngle=0.6205801659133483;endAngle=0.8809804521919458;" vertex="1" parent="XbdiqBnvahFQlufsMgbx-34">
          <mxGeometry x="15" width="30" height="20" as="geometry" />
        </mxCell>
        <mxCell id="XbdiqBnvahFQlufsMgbx-13" value="" style="verticalLabelPosition=top;verticalAlign=bottom;html=1;shape=mxgraph.basic.arc;startAngle=0.6205801659133483;endAngle=0.8809804521919458;rotation=-180;labelPosition=center;align=center;" vertex="1" parent="XbdiqBnvahFQlufsMgbx-34">
          <mxGeometry width="30" height="20" as="geometry" />
        </mxCell>
        <mxCell id="XbdiqBnvahFQlufsMgbx-14" value="" style="endArrow=none;html=1;rounded=0;exitX=0.001;exitY=0.358;exitDx=0;exitDy=0;exitPerimeter=0;" edge="1" parent="XbdiqBnvahFQlufsMgbx-34">
          <mxGeometry width="50" height="50" relative="1" as="geometry">
            <mxPoint x="30" y="9.949999999999989" as="sourcePoint" />
            <mxPoint x="40" y="10" as="targetPoint" />
          </mxGeometry>
        </mxCell>
        <mxCell id="XbdiqBnvahFQlufsMgbx-15" value="" style="endArrow=none;html=1;rounded=0;exitX=0.001;exitY=0.358;exitDx=0;exitDy=0;exitPerimeter=0;" edge="1" parent="XbdiqBnvahFQlufsMgbx-34">
          <mxGeometry width="50" height="50" relative="1" as="geometry">
            <mxPoint x="5" y="10" as="sourcePoint" />
            <mxPoint x="15" y="10" as="targetPoint" />
          </mxGeometry>
        </mxCell>
        <mxCell id="XbdiqBnvahFQlufsMgbx-16" value="R" style="text;html=1;align=center;verticalAlign=middle;whiteSpace=wrap;rounded=0;fontSize=10;" vertex="1" parent="XbdiqBnvahFQlufsMgbx-34">
          <mxGeometry x="20" y="8.75" width="5" height="2.5" as="geometry" />
        </mxCell>
        <mxCell id="XbdiqBnvahFQlufsMgbx-35" value="InFunzione" style="group;labelPosition=center;verticalLabelPosition=top;align=center;verticalAlign=bottom;fontSize=10;" vertex="1" connectable="0" parent="1">
          <mxGeometry x="335" y="110" width="45" height="20" as="geometry" />
        </mxCell>
        <mxCell id="XbdiqBnvahFQlufsMgbx-36" value="" style="verticalLabelPosition=bottom;verticalAlign=top;html=1;shape=mxgraph.basic.arc;startAngle=0.6205801659133483;endAngle=0.8809804521919458;" vertex="1" parent="XbdiqBnvahFQlufsMgbx-35">
          <mxGeometry x="15" width="30" height="20" as="geometry" />
        </mxCell>
        <mxCell id="XbdiqBnvahFQlufsMgbx-37" value="" style="verticalLabelPosition=top;verticalAlign=bottom;html=1;shape=mxgraph.basic.arc;startAngle=0.6205801659133483;endAngle=0.8809804521919458;rotation=-180;labelPosition=center;align=center;" vertex="1" parent="XbdiqBnvahFQlufsMgbx-35">
          <mxGeometry width="30" height="20" as="geometry" />
        </mxCell>
        <mxCell id="XbdiqBnvahFQlufsMgbx-38" value="" style="endArrow=none;html=1;rounded=0;exitX=0.001;exitY=0.358;exitDx=0;exitDy=0;exitPerimeter=0;" edge="1" parent="XbdiqBnvahFQlufsMgbx-35">
          <mxGeometry width="50" height="50" relative="1" as="geometry">
            <mxPoint x="30" y="9.949999999999989" as="sourcePoint" />
            <mxPoint x="40" y="10" as="targetPoint" />
          </mxGeometry>
        </mxCell>
        <mxCell id="XbdiqBnvahFQlufsMgbx-39" value="" style="endArrow=none;html=1;rounded=0;exitX=0.001;exitY=0.358;exitDx=0;exitDy=0;exitPerimeter=0;" edge="1" parent="XbdiqBnvahFQlufsMgbx-35">
          <mxGeometry width="50" height="50" relative="1" as="geometry">
            <mxPoint x="5" y="10" as="sourcePoint" />
            <mxPoint x="15" y="10" as="targetPoint" />
          </mxGeometry>
        </mxCell>
        <mxCell id="XbdiqBnvahFQlufsMgbx-41" value="L1" style="group;labelPosition=center;verticalLabelPosition=top;align=center;verticalAlign=bottom;fontSize=10;" vertex="1" connectable="0" parent="1">
          <mxGeometry x="335" y="390" width="45" height="20" as="geometry" />
        </mxCell>
        <mxCell id="XbdiqBnvahFQlufsMgbx-42" value="" style="verticalLabelPosition=bottom;verticalAlign=top;html=1;shape=mxgraph.basic.arc;startAngle=0.6205801659133483;endAngle=0.8809804521919458;" vertex="1" parent="XbdiqBnvahFQlufsMgbx-41">
          <mxGeometry x="15" width="30" height="20" as="geometry" />
        </mxCell>
        <mxCell id="XbdiqBnvahFQlufsMgbx-43" value="" style="verticalLabelPosition=top;verticalAlign=bottom;html=1;shape=mxgraph.basic.arc;startAngle=0.6205801659133483;endAngle=0.8809804521919458;rotation=-180;labelPosition=center;align=center;" vertex="1" parent="XbdiqBnvahFQlufsMgbx-41">
          <mxGeometry width="30" height="20" as="geometry" />
        </mxCell>
        <mxCell id="XbdiqBnvahFQlufsMgbx-44" value="" style="endArrow=none;html=1;rounded=0;exitX=0.001;exitY=0.358;exitDx=0;exitDy=0;exitPerimeter=0;" edge="1" parent="XbdiqBnvahFQlufsMgbx-41">
          <mxGeometry width="50" height="50" relative="1" as="geometry">
            <mxPoint x="30" y="9.949999999999989" as="sourcePoint" />
            <mxPoint x="40" y="10" as="targetPoint" />
          </mxGeometry>
        </mxCell>
        <mxCell id="XbdiqBnvahFQlufsMgbx-45" value="" style="endArrow=none;html=1;rounded=0;exitX=0.001;exitY=0.358;exitDx=0;exitDy=0;exitPerimeter=0;" edge="1" parent="XbdiqBnvahFQlufsMgbx-41">
          <mxGeometry width="50" height="50" relative="1" as="geometry">
            <mxPoint x="5" y="10" as="sourcePoint" />
            <mxPoint x="15" y="10" as="targetPoint" />
          </mxGeometry>
        </mxCell>
        <mxCell id="XbdiqBnvahFQlufsMgbx-51" value="L2" style="group;labelPosition=center;verticalLabelPosition=top;align=center;verticalAlign=bottom;fontSize=10;" vertex="1" connectable="0" parent="1">
          <mxGeometry x="335" y="430" width="45" height="20" as="geometry" />
        </mxCell>
        <mxCell id="XbdiqBnvahFQlufsMgbx-52" value="" style="verticalLabelPosition=bottom;verticalAlign=top;html=1;shape=mxgraph.basic.arc;startAngle=0.6205801659133483;endAngle=0.8809804521919458;" vertex="1" parent="XbdiqBnvahFQlufsMgbx-51">
          <mxGeometry x="15" width="30" height="20" as="geometry" />
        </mxCell>
        <mxCell id="XbdiqBnvahFQlufsMgbx-53" value="" style="verticalLabelPosition=top;verticalAlign=bottom;html=1;shape=mxgraph.basic.arc;startAngle=0.6205801659133483;endAngle=0.8809804521919458;rotation=-180;labelPosition=center;align=center;" vertex="1" parent="XbdiqBnvahFQlufsMgbx-51">
          <mxGeometry width="30" height="20" as="geometry" />
        </mxCell>
        <mxCell id="XbdiqBnvahFQlufsMgbx-54" value="" style="endArrow=none;html=1;rounded=0;exitX=0.001;exitY=0.358;exitDx=0;exitDy=0;exitPerimeter=0;" edge="1" parent="XbdiqBnvahFQlufsMgbx-51">
          <mxGeometry width="50" height="50" relative="1" as="geometry">
            <mxPoint x="30" y="9.949999999999989" as="sourcePoint" />
            <mxPoint x="40" y="10" as="targetPoint" />
          </mxGeometry>
        </mxCell>
        <mxCell id="XbdiqBnvahFQlufsMgbx-55" value="" style="endArrow=none;html=1;rounded=0;exitX=0.001;exitY=0.358;exitDx=0;exitDy=0;exitPerimeter=0;" edge="1" parent="XbdiqBnvahFQlufsMgbx-51">
          <mxGeometry width="50" height="50" relative="1" as="geometry">
            <mxPoint x="5" y="10" as="sourcePoint" />
            <mxPoint x="15" y="10" as="targetPoint" />
          </mxGeometry>
        </mxCell>
        <mxCell id="XbdiqBnvahFQlufsMgbx-56" value="L3" style="group;labelPosition=center;verticalLabelPosition=top;align=center;verticalAlign=bottom;fontSize=10;" vertex="1" connectable="0" parent="1">
          <mxGeometry x="335" y="470" width="45" height="20" as="geometry" />
        </mxCell>
        <mxCell id="XbdiqBnvahFQlufsMgbx-57" value="" style="verticalLabelPosition=bottom;verticalAlign=top;html=1;shape=mxgraph.basic.arc;startAngle=0.6205801659133483;endAngle=0.8809804521919458;" vertex="1" parent="XbdiqBnvahFQlufsMgbx-56">
          <mxGeometry x="15" width="30" height="20" as="geometry" />
        </mxCell>
        <mxCell id="XbdiqBnvahFQlufsMgbx-58" value="" style="verticalLabelPosition=top;verticalAlign=bottom;html=1;shape=mxgraph.basic.arc;startAngle=0.6205801659133483;endAngle=0.8809804521919458;rotation=-180;labelPosition=center;align=center;" vertex="1" parent="XbdiqBnvahFQlufsMgbx-56">
          <mxGeometry width="30" height="20" as="geometry" />
        </mxCell>
        <mxCell id="XbdiqBnvahFQlufsMgbx-59" value="" style="endArrow=none;html=1;rounded=0;exitX=0.001;exitY=0.358;exitDx=0;exitDy=0;exitPerimeter=0;" edge="1" parent="XbdiqBnvahFQlufsMgbx-56">
          <mxGeometry width="50" height="50" relative="1" as="geometry">
            <mxPoint x="30" y="9.949999999999989" as="sourcePoint" />
            <mxPoint x="40" y="10" as="targetPoint" />
          </mxGeometry>
        </mxCell>
        <mxCell id="XbdiqBnvahFQlufsMgbx-60" value="" style="endArrow=none;html=1;rounded=0;exitX=0.001;exitY=0.358;exitDx=0;exitDy=0;exitPerimeter=0;" edge="1" parent="XbdiqBnvahFQlufsMgbx-56">
          <mxGeometry width="50" height="50" relative="1" as="geometry">
            <mxPoint x="5" y="10" as="sourcePoint" />
            <mxPoint x="15" y="10" as="targetPoint" />
          </mxGeometry>
        </mxCell>
        <mxCell id="XbdiqBnvahFQlufsMgbx-61" value="L5" style="group;labelPosition=center;verticalLabelPosition=top;align=center;verticalAlign=bottom;fontSize=10;" vertex="1" connectable="0" parent="1">
          <mxGeometry x="335" y="550" width="45" height="20" as="geometry" />
        </mxCell>
        <mxCell id="XbdiqBnvahFQlufsMgbx-62" value="" style="verticalLabelPosition=bottom;verticalAlign=top;html=1;shape=mxgraph.basic.arc;startAngle=0.6205801659133483;endAngle=0.8809804521919458;" vertex="1" parent="XbdiqBnvahFQlufsMgbx-61">
          <mxGeometry x="15" width="30" height="20" as="geometry" />
        </mxCell>
        <mxCell id="XbdiqBnvahFQlufsMgbx-63" value="" style="verticalLabelPosition=top;verticalAlign=bottom;html=1;shape=mxgraph.basic.arc;startAngle=0.6205801659133483;endAngle=0.8809804521919458;rotation=-180;labelPosition=center;align=center;" vertex="1" parent="XbdiqBnvahFQlufsMgbx-61">
          <mxGeometry width="30" height="20" as="geometry" />
        </mxCell>
        <mxCell id="XbdiqBnvahFQlufsMgbx-64" value="" style="endArrow=none;html=1;rounded=0;exitX=0.001;exitY=0.358;exitDx=0;exitDy=0;exitPerimeter=0;" edge="1" parent="XbdiqBnvahFQlufsMgbx-61">
          <mxGeometry width="50" height="50" relative="1" as="geometry">
            <mxPoint x="30" y="9.949999999999989" as="sourcePoint" />
            <mxPoint x="40" y="10" as="targetPoint" />
          </mxGeometry>
        </mxCell>
        <mxCell id="XbdiqBnvahFQlufsMgbx-65" value="" style="endArrow=none;html=1;rounded=0;exitX=0.001;exitY=0.358;exitDx=0;exitDy=0;exitPerimeter=0;" edge="1" parent="XbdiqBnvahFQlufsMgbx-61">
          <mxGeometry width="50" height="50" relative="1" as="geometry">
            <mxPoint x="5" y="10" as="sourcePoint" />
            <mxPoint x="15" y="10" as="targetPoint" />
          </mxGeometry>
        </mxCell>
      </root>
    </mxGraphModel>
  </diagram>
</mxfile>
